<svg id="Layer_1" height="512" viewBox="0 0 512 512" width="512" xmlns="http://www.w3.org/2000/svg" data-name="Layer 1"><path d="m137.342 274.604 54.399-9.266-45.133-45.133z"/><path d="m194.069 250.696 10.133 10.134 61.674-61.365-10.091-10.092z"/><path d="m247.299 180.888-16.241-16.242-61.323 61.716 15.848 15.848z"/><path d="m222.572 156.161-10.091-10.091-61.364 61.674 10.133 10.133z"/><path d="m246.489 128h-.009a37.336 37.336 0 0 0 -25.5 9.758l53.375 53.212a37.533 37.533 0 0 0 -27.866-62.97z"/><path d="m386.445 207.264c0-98.708-80.342-179.013-179.1-179.013s-179.1 80.3-179.1 179.013 80.343 179.013 179.1 179.013 179.1-80.305 179.1-179.013zm-179.1 143.813c-79.333 0-143.876-64.515-143.876-143.813s64.547-143.812 143.88-143.812 143.875 64.514 143.875 143.812-64.542 143.813-143.875 143.813z"/><path d="m476.09 438.931-90.2-90.171-37.19 37.169 90.168 90.129a26.328 26.328 0 0 0 37.161-.007l.059-.059q.5-.493.979-1.017a26.253 26.253 0 0 0 -.977-36.044z"/><path d="m368.613 349.058-16.845-16.835a192.791 192.791 0 0 1 -19.4 19.392l16.844 16.835z"/><path d="m207.349 75.452c-72.717 0-131.876 59.131-131.876 131.812s59.159 131.813 131.876 131.813 131.875-59.131 131.875-131.813-59.16-131.812-131.875-131.812zm74.315 125.232-.007.008-73.233 72.866a6.008 6.008 0 0 1 -3.225 1.662l-74.185 12.637a5.926 5.926 0 0 1 -1.008.088 5.991 5.991 0 0 1 -5.915-6.992l12.637-74.165a5.877 5.877 0 0 1 1.662-3.184l72.865-73.152a49.286 49.286 0 0 1 35.216-14.452h.018a49.552 49.552 0 0 1 35.175 84.684z"/></svg>