<svg height="496pt" viewBox="0 0 496 496" width="496pt" xmlns="http://www.w3.org/2000/svg"><path d="m280 488-16-112 8-24-24-16-24 16 8 24-16 112zm0 0" fill="#f0bc5e"/><path d="m253.398438 0c-25.917969 0-51.34375 8.921875-71.597657 25.113281l-9.898437 7.917969c-26.71875 11.199219-43.902344 36.992188-43.902344 66.046875v68.921875h8c0-17.671875 14.328125-32 32-32v-8c0-8.839844 7.160156-16 16-16h7.441406c5.351563 0 10.34375-2.671875 13.3125-7.128906l11.246094-16.871094 14.9375 11.199219c11.078125 8.3125 24.550781 12.800781 38.398438 12.800781h26.664062c14.894531 0 27.304688 10.222656 30.871094 24h1.128906c17.671875 0 32 14.328125 32 32h8v-53.398438c0-63.195312-51.40625-114.601562-114.601562-114.601562zm0 0" fill="#f0bc5e"/><path d="m224 160h48v16h-48zm0 0"/><path d="m248 248c17.648438 0 32-14.351562 32-32h-16c0 8.824219-7.175781 16-16 16s-16-7.175781-16-16h-16c0 17.648438 14.351562 32 32 32zm0 0"/><path d="m248 0c-136.742188 0-248 111.246094-248 248s111.257812 248 248 248 248-111.246094 248-248-111.257812-248-248-248zm-88 190.527344c-9.289062-3.3125-16-12.113282-16-22.527344s6.710938-19.214844 16-22.527344zm16-14.527344h16v-16h-16v-32c0-4.414062 3.59375-8 8-8h7.441406c8.039063 0 15.503906-3.992188 19.964844-10.6875l6.5625-9.832031 8.167969 6.128906c12.382812 9.285156 27.71875 14.398437 43.191406 14.398437h26.671875c13.230469 0 24 10.769532 24 24v16h-16v16h16v16c0 39.703126-32.304688 72-72 72s-72-32.296874-72-72zm160-30.527344c9.289062 3.3125 16 12.113282 16 22.527344s-6.710938 19.214844-16 22.527344zm64 277.574219c-19.921875 17.320313-42.800781 31.289063-67.785156 41.066406l12.105468-48.433593-6.535156-19.625 13.199219-6.597657 14.34375-64.5625 10.910156 2.914063c13.992188 3.734375 23.761719 16.457031 23.761719 30.925781zm-62.984375-44.503906-18.800781 9.402343 9.464844 28.375-13.503907 54.015626c-5.589843 1.671874-11.273437 3.136718-17.03125 4.382812l13.695313-164.34375 39.023437 10.402344zm-45.449219-29.703125-30.0625-15.03125 28.886719-28.886719 4.730469 1.261719zm-43.566406-68.839844c11.296875 0 22.0625-2.214844 32-6.113281v18.800781l-32 32-32-32v-18.800781c9.9375 3.898437 20.703125 6.113281 32 6.113281zm-42.390625 24.921875 28.886719 28.886719-30.0625 15.03125-3.554688-42.65625zm-20.441406 5.445313 13.695312 164.34375c-5.757812-1.246094-11.4375-2.710938-17.03125-4.382813l-13.503906-54.015625 9.464844-28.375-18.800781-9.402344-12.839844-57.773437zm-54.496094 14.527343 14.34375 64.5625 13.199219 6.597657-6.535156 19.625 12.105468 48.433593c-24.984375-9.777343-47.863281-23.746093-67.785156-41.066406v-64.3125c0-14.476563 9.769531-27.191406 23.761719-30.925781zm84.496094 152.738281-9.304688-111.617187 42.136719-21.070313 42.136719 21.0625-9.304688 111.617188c-10.726562 1.535156-21.679687 2.375-32.832031 2.375s-22.105469-.839844-32.832031-2.367188zm200.832031-69.890624v-49.015626c0-21.710937-14.65625-40.789062-35.632812-46.382812l-84.367188-22.496094v-24.191406c19.960938-13.046875 34.265625-33.96875 38.574219-58.328125 18.921875-3.152344 33.425781-19.527344 33.425781-39.328125 0-20.390625-15.390625-37.070312-35.136719-39.503906-6.070312-14.375-20.304687-24.496094-36.863281-24.496094h-26.664062c-12.03125 0-23.96875-3.976562-33.601563-11.191406l-21.695313-16.28125-15.941406 23.914062c-1.488281 2.230469-3.976562 3.558594-6.65625 3.558594h-7.441406c-13.230469 0-24 10.769531-24 24v.808594c-18.230469 3.71875-32 19.871094-32 39.191406 0 19.800781 14.503906 36.175781 33.425781 39.335938 4.300781 24.359374 18.613281 45.273437 38.574219 58.328124v24.191407l-84.367188 22.496093c-20.976562 5.59375-35.632812 24.671876-35.632812 46.382813v49.019531c-39.609375-41.640625-64-97.890625-64-159.753906 0-127.921875 104.070312-232 232-232s232 104.078125 232 232c0 61.863281-24.390625 118.113281-64 159.742188zm0 0"/><g fill="#f0bc5e"><path d="m232 168c0 13.253906-10.746094 24-24 24s-24-10.746094-24-24 10.746094-24 24-24 24 10.746094 24 24zm0 0"/><path d="m312 168c0 13.253906-10.746094 24-24 24s-24-10.746094-24-24 10.746094-24 24-24 24 10.746094 24 24zm0 0"/></g></svg>