<svg height="496pt" viewBox="0 0 496 496.216" width="496pt" xmlns="http://www.w3.org/2000/svg"><path d="m375.867188 329.625-42.71875-7-85.425782 69.589844-84.679687-69.582032-42.695313 6.992188c-1.902344.3125-3.6875.894531-5.503906 1.414062l.214844 3.386719 133.050781 108.09375 133.046875-108.09375.214844-3.386719c-1.816406-.519531-3.597656-1.101562-5.503906-1.414062zm0 0" fill="#f0bc5e"/><path d="m368.109375 224.214844v-96h-240v96c-30.875 0-56 25.128906-56 56 0 24.320312 15.613281 45.015625 37.328125 52.730468 3.460938-1.472656 7.0625-2.6875 10.910156-3.320312l87.761719-14.378906v-28.421875c-17.53125-10.167969-30.875-26.769531-36.714844-46.609375h-3.285156c-17.671875 0-32-14.328125-32-32s14.328125-32 32-32c21.550781-4.3125 40.65625-16.207032 54.144531-33.238282l1.855469 1.238282c15.367187 15.371094 36.207031 24 57.941406 24h6.058594v-7.453125c10.566406 4.8125 22.101563 7.453125 33.941406 7.453125h6.058594v8c17.671875 0 32 14.328125 32 32s-14.328125 32-32 32h-3.289063c-5.839843 19.847656-19.175781 36.441406-36.710937 46.609375v28.421875l87.757813 14.378906c3.855468.632812 7.449218 1.855469 10.914062 3.320312 21.710938-7.714843 37.328125-28.410156 37.328125-52.730468 0-30.871094-25.128906-56-56-56zm0 0" fill="#f0bc5e"/><path d="m248.109375 272.214844c17.046875 0 32-14.949219 32-32h-16c0 7.402344-6.992187 16-16 16-8.824219 0-16-7.175782-16-16h-16c0 17.648437 14.351563 32 32 32zm0 0"/><path d="m216.109375 193.617188c0 4.417968-3.582031 8-8 8s-8-3.582032-8-8c0-4.417969 3.582031-8 8-8s8 3.582031 8 8zm0 0"/><path d="m296.109375 193.617188c0 4.417968-3.582031 8-8 8s-8-3.582032-8-8c0-4.417969 3.582031-8 8-8s8 3.582031 8 8zm0 0"/><path d="m240.109375 448.214844h16v16h-16zm0 0"/><path d="m392.109375 46.425781v-12.546875l-144-33.878906-144 33.878906v12.535156c-65.195313 46.601563-104 121.488282-104 201.800782 0 136.753906 111.246094 248 248 248 136.75 0 248-111.246094 248-248 0-80.367188-38.785156-155.191406-104-201.789063zm88 201.789063c0 57.601562-21.121094 110.359375-56 150.96875v-22.191406c0-27.558594-19.746094-50.808594-46.945313-55.265626l-45.960937-7.527343-.152344-.183594-.160156.136719-34.78125-5.703125v-17.175781c15.710937-10.273438 27.894531-25.441407 34.496094-43.3125 20.871093-1.3125 37.503906-18.546876 37.503906-39.746094 0-19.3125-13.769531-35.472656-32-39.191406v-32.808594h32v-77.054688l11.480469-2.023437c62.964844 43.398437 100.519531 114.574219 100.519531 191.078125zm-318.855469-17.117188c-9.882812-2.96875-17.144531-12.050781-17.144531-22.882812 0-10.414063 6.710937-19.214844 16-22.527344v31.929688c0 4.589843.460937 9.070312 1.144531 13.480468zm-17.144531-169.113281 102.605469 18.105469 1.394531.253906 104-18.351562v58.222656h-208zm192 123.703125c9.285156 3.3125 16 12.113281 16 22.527344 0 10.832031-7.265625 19.914062-17.144531 22.882812.679687-4.410156 1.144531-8.890625 1.144531-13.480468zm-16-25.566406c-19.015625-.488282-36.832031-8.058594-50.34375-21.5625l-11.3125 11.3125c3.40625 3.410156 7.09375 6.417968 10.917969 9.199218-13.464844-2.308593-25.925782-8.308593-36.269532-17.484374.949219-1.410157 1.972657-2.769532 2.855469-4.234376l.679688-1.136718h83.472656zm-102.65625-23.90625c-10.394531 13.890625-24.882813 24.21875-41.34375 29.59375v-29.59375zm-41.34375 46.199218c18.078125-4.886718 34.421875-14.652343 47.117187-28.214843 16.335938 14.191406 36.960938 22.015625 58.816407 22.015625h6.066406v-6.621094c10.046875 4.09375 20.855469 6.292969 32 6.527344v41.496094c0 39.703124-32.296875 72-72 72-39.707031 0-72-32.296876-72-72zm72 123.203126c11.292969 0 22.0625-2.21875 32-6.113282v8.863282l-32 25.609374-32-25.609374v-8.863282c9.933594 3.894532 20.703125 6.113282 32 6.113282zm-39.082031 17.582031 39.082031 31.257812 39.078125-31.257812 27.128906 4.449219-66.570312 54.230468-65.972656-54.207031zm39.082031-306.765625 115.742187 27.230468-115.742187 20.425782-115.746094-20.417969zm-131.511719 40.695312 11.511719 2.03125v77.054688h32v32.808594c-18.234375 3.71875-32 19.871093-32 39.191406 0 21.199218 16.628906 38.433594 37.503906 39.753906 6.597657 17.871094 18.773438 33.03125 34.496094 43.3125v17.175781l-34.785156 5.695313-.136719-.113282-.128906.152344-46.007813 7.535156c-27.199219 4.457032-46.941406 27.699219-46.941406 55.265626v22.191406c-34.882813-40.609375-56-93.367188-56-150.96875 0-76.4375 37.542969-147.671875 100.488281-191.085938zm235.511719 300.894532v97.480468c-5.226563 2.632813-10.5625 5.089844-16 7.328125v-91.808593l-16 13v84.695312c-22.679687 7.425781-46.875 11.496094-72 11.496094-25.128906 0-49.320313-4.070313-72-11.496094v-84.695312l-16-13v91.808593c-5.441406-2.238281-10.777344-4.695312-16-7.328125v-97.480468l-16-13v101.671874c-14.464844-8.773437-27.824219-19.175781-40-30.800781v-38.910156c0-19.6875 14.101563-36.289063 33.535156-39.472656l39.121094-6.40625 86.933594 71.4375 87.710937-71.445313 39.160156 6.414063c19.433594 3.191406 33.539063 19.792969 33.539063 39.480469v38.910156c-12.175781 11.625-25.539063 22.019531-40 30.800781v-101.679687zm0 0"/></svg>